{
	"asset":{
		"generator":"Khronos glTF Blender I/O v4.3.47",
		"version":"2.0"
	},
	"scene":0,
	"scenes":[
		{
			"name":"Scene",
			"nodes":[
				0
			]
		}
	],
	"nodes":[
		{
			"mesh":0,
			"name":"Cottage_Free"
		}
	],
	"materials":[
		{
			"doubleSided":true,
			"name":"Cottage_FREE",
			"normalTexture":{
				"index":0
			},
			"pbrMetallicRoughness":{
				"baseColorTexture":{
					"index":1
				},
				"metallicRoughnessTexture":{
					"index":2
				}
			}
		}
	],
	"meshes":[
		{
			"name":"Cottage_Free",
			"primitives":[
				{
					"attributes":{
						"POSITION":0,
						"NORMAL":1,
						"TEXCOORD_0":2
					},
					"indices":3,
					"material":0
				}
			]
		}
	],
	"textures":[
		{
			"sampler":0,
			"source":0
		},
		{
			"sampler":0,
			"source":1
		},
		{
			"sampler":0,
			"source":2
		}
	],
	"images":[
		{
			"mimeType":"image/png",
			"name":"Cottage_Clean_Normal",
			"uri":"Cottage_Clean_Normal.png"
		},
		{
			"mimeType":"image/png",
			"name":"Cottage_Clean_Base_Color",
			"uri":"Cottage_Clean_Base_Color.png"
		},
		{
			"mimeType":"image/png",
			"name":"Cottage_Clean_Metallic-Cottage_Clean_Roughness",
			"uri":"Cottage_Clean_Metallic-Cottage_Clean_Roughness.png"
		}
	],
	"accessors":[
		{
			"bufferView":0,
			"componentType":5126,
			"count":6581,
			"max":[
				6.403256416320801,
				6.737067699432373,
				7.620824813842773
			],
			"min":[
				-6.034487724304199,
				-0.016011305153369904,
				-7.029338836669922
			],
			"type":"VEC3"
		},
		{
			"bufferView":1,
			"componentType":5126,
			"count":6581,
			"type":"VEC3"
		},
		{
			"bufferView":2,
			"componentType":5126,
			"count":6581,
			"type":"VEC2"
		},
		{
			"bufferView":3,
			"componentType":5123,
			"count":12843,
			"type":"SCALAR"
		}
	],
	"bufferViews":[
		{
			"buffer":0,
			"byteLength":78972,
			"byteOffset":0,
			"target":34962
		},
		{
			"buffer":0,
			"byteLength":78972,
			"byteOffset":78972,
			"target":34962
		},
		{
			"buffer":0,
			"byteLength":52648,
			"byteOffset":157944,
			"target":34962
		},
		{
			"buffer":0,
			"byteLength":25686,
			"byteOffset":210592,
			"target":34963
		}
	],
	"samplers":[
		{
			"magFilter":9729,
			"minFilter":9987
		}
	],
	"buffers":[
		{
			"byteLength":236280,
			"uri":"cottage.bin"
		}
	]
}
