{
	"asset":{
		"generator":"Khronos glTF Blender I/O v4.3.47",
		"version":"2.0"
	},
	"scene":0,
	"scenes":[
		{
			"name":"Scene",
			"nodes":[
				0
			]
		}
	],
	"nodes":[
		{
			"mesh":0,
			"name":"T-Rex_Model"
		}
	],
	"materials":[
		{
			"doubleSided":true,
			"name":"Material.003",
			"pbrMetallicRoughness":{
				"baseColorTexture":{
					"index":0
				},
				"metallicFactor":0,
				"roughnessFactor":0.5
			}
		}
	],
	"meshes":[
		{
			"name":"T-Rex_Model",
			"primitives":[
				{
					"attributes":{
						"POSITION":0,
						"NORMAL":1,
						"TEXCOORD_0":2
					},
					"indices":3,
					"material":0
				}
			]
		}
	],
	"textures":[
		{
			"sampler":0,
			"source":0
		}
	],
	"images":[
		{
			"mimeType":"image/png",
			"name":"dinosaur1",
			"uri":"dinosaur1.png"
		}
	],
	"accessors":[
		{
			"bufferView":0,
			"componentType":5126,
			"count":21661,
			"max":[
				10.81377124786377,
				8.643627166748047,
				2.6351609230041504
			],
			"min":[
				-8.359713554382324,
				-0.0822179988026619,
				-2.749069929122925
			],
			"type":"VEC3"
		},
		{
			"bufferView":1,
			"componentType":5126,
			"count":21661,
			"type":"VEC3"
		},
		{
			"bufferView":2,
			"componentType":5126,
			"count":21661,
			"type":"VEC2"
		},
		{
			"bufferView":3,
			"componentType":5123,
			"count":45507,
			"type":"SCALAR"
		}
	],
	"bufferViews":[
		{
			"buffer":0,
			"byteLength":259932,
			"byteOffset":0,
			"target":34962
		},
		{
			"buffer":0,
			"byteLength":259932,
			"byteOffset":259932,
			"target":34962
		},
		{
			"buffer":0,
			"byteLength":173288,
			"byteOffset":519864,
			"target":34962
		},
		{
			"buffer":0,
			"byteLength":91014,
			"byteOffset":693152,
			"target":34963
		}
	],
	"samplers":[
		{
			"magFilter":9729,
			"minFilter":9987
		}
	],
	"buffers":[
		{
			"byteLength":784168,
			"uri":"dinosaur.bin"
		}
	]
}
