{
	"asset":{
		"generator":"Khronos glTF Blender I/O v4.3.47",
		"version":"2.0"
	},
	"scene":0,
	"scenes":[
		{
			"name":"Scene",
			"nodes":[
				0
			]
		}
	],
	"nodes":[
		{
			"mesh":0,
			"name":"Low_Grass",
			"rotation":[
				0.7071068286895752,
				0,
				0,
				0.7071068286895752
			]
		}
	],
	"materials":[
		{
			"doubleSided":true,
			"name":"Material.001",
			"pbrMetallicRoughness":{
				"baseColorTexture":{
					"index":0
				},
				"metallicFactor":0,
				"roughnessFactor":0.5
			}
		}
	],
	"meshes":[
		{
			"name":"Low_Grass",
			"primitives":[
				{
					"attributes":{
						"POSITION":0,
						"NORMAL":1,
						"TEXCOORD_0":2
					},
					"indices":3,
					"material":0
				}
			]
		}
	],
	"textures":[
		{
			"sampler":0,
			"source":0
		}
	],
	"images":[
		{
			"mimeType":"image/png",
			"name":"grass",
			"uri":"grass.png"
		}
	],
	"accessors":[
		{
			"bufferView":0,
			"componentType":5126,
			"count":3038,
			"max":[
				0.13596299290657043,
				0.2027910053730011,
				0.12612099945545197
			],
			"min":[
				-0.13596299290657043,
				0,
				-0.12612099945545197
			],
			"type":"VEC3"
		},
		{
			"bufferView":1,
			"componentType":5126,
			"count":3038,
			"type":"VEC3"
		},
		{
			"bufferView":2,
			"componentType":5126,
			"count":3038,
			"type":"VEC2"
		},
		{
			"bufferView":3,
			"componentType":5123,
			"count":3336,
			"type":"SCALAR"
		}
	],
	"bufferViews":[
		{
			"buffer":0,
			"byteLength":36456,
			"byteOffset":0,
			"target":34962
		},
		{
			"buffer":0,
			"byteLength":36456,
			"byteOffset":36456,
			"target":34962
		},
		{
			"buffer":0,
			"byteLength":24304,
			"byteOffset":72912,
			"target":34962
		},
		{
			"buffer":0,
			"byteLength":6672,
			"byteOffset":97216,
			"target":34963
		}
	],
	"samplers":[
		{
			"magFilter":9729,
			"minFilter":9987
		}
	],
	"buffers":[
		{
			"byteLength":103888,
			"uri":"grass.bin"
		}
	]
}
